<svg width="13" height="14" viewBox="0 0 13 14" fill="none" xmlns="http://www.w3.org/2000/svg">
<path d="M2.10175 4.83784L0.602051 4.7489C1.67684 1.98783 4.76284 0.416051 7.77096 1.19729C10.9756 2.03026 12.8792 5.21858 12.0224 8.31796C11.3139 10.882 8.93933 12.5828 6.3259 12.6229" stroke="#4094D1" stroke-linecap="round" stroke-linejoin="round"/>
<path d="M6.41484 12.6233C3.21781 12.6233 0.602051 9.71695 0.602051 6.22928M7.34721 5.48641C7.1426 5.27133 6.64212 4.76736 5.85042 5.12601C5.0593 5.4835 4.93374 6.63501 6.13059 6.75766C6.67118 6.81289 7.02402 6.69372 7.34721 7.03086C7.6704 7.36917 7.73027 8.30852 6.90486 8.56195C6.07944 8.81539 5.54408 8.39687 5.40051 8.26608M6.36136 4.49707V4.95628M6.36136 8.63985V9.1473" stroke="#4094D1" stroke-linecap="round" stroke-linejoin="round"/>
</svg>
