<svg width="21" height="17" viewBox="0 0 21 17" fill="none" xmlns="http://www.w3.org/2000/svg">
<path d="M17.249 0.161876C16.9459 0.115582 16.6359 0.160543 16.3585 0.291033C16.0811 0.421523 15.8487 0.631637 15.6911 0.894614L14.2293 3.32083L9.92662 0.728376C9.57476 0.516444 9.15313 0.452936 8.75445 0.55182C8.35578 0.650703 8.01269 0.903881 7.80066 1.25568L5.2082 5.55832L2.78199 4.09646C2.51958 3.93841 2.21621 3.8617 1.91021 3.87604C1.60422 3.89038 1.30935 3.99513 1.06288 4.17703C0.816407 4.35893 0.6294 4.60983 0.525499 4.89799C0.421597 5.18616 0.405467 5.49867 0.479148 5.796L2.45298 13.7541C2.70135 14.7503 3.3347 15.6074 4.21412 16.1372C5.09354 16.6671 6.14723 16.8265 7.14404 16.5806L17.6686 13.9702C18.6648 13.7218 19.5219 13.0885 20.0518 12.209C20.5816 11.3296 20.7411 10.2759 20.4951 9.27911L18.5213 1.32103C18.4476 1.02367 18.2874 0.75483 18.0609 0.548504C17.8345 0.342179 17.5519 0.207632 17.249 0.161876Z" fill="#F1C735"/>
</svg>
