<svg width="22" height="28" viewBox="0 0 22 28" fill="none" xmlns="http://www.w3.org/2000/svg">
<path d="M21.3968 21.8591H2.01855V5.09473H21.3875C21.9717 5.09473 22.2811 5.79106 21.892 6.23015L15.903 12.9854C15.6745 13.243 15.6737 13.6321 15.901 13.8906L21.9034 20.7261C22.2897 21.166 21.9795 21.8591 21.3968 21.8591Z" fill="url(#paint0_linear_4244_10119)"/>
<path d="M1.62358 37.8127C1.13772 37.8127 0.744141 37.4162 0.744141 36.9267V2.32324H2.50303V36.9267C2.50303 37.4158 2.10905 37.8127 1.62358 37.8127Z" fill="url(#paint1_linear_4244_10119)"/>
<path d="M1.62349 3.95861C2.52013 3.95861 3.24699 3.22635 3.24699 2.32305C3.24699 1.41976 2.52013 0.6875 1.62349 0.6875C0.726863 0.6875 0 1.41976 0 2.32305C0 3.22635 0.726863 3.95861 1.62349 3.95861Z" fill="url(#paint2_radial_4244_10119)"/>
<path d="M2.50435 22.0743H0.743027C0.703589 22.0743 0.671875 22.042 0.671875 22.0027V4.87051C0.671875 4.83078 0.703995 4.79883 0.743027 4.79883H2.50435C2.54379 4.79883 2.57551 4.83119 2.57551 4.87051V22.0023C2.57551 22.042 2.54379 22.0743 2.50435 22.0743Z" fill="url(#paint3_linear_4244_10119)"/>
<defs>
<linearGradient id="paint0_linear_4244_10119" x1="21.9663" y1="13.4768" x2="2.02243" y2="13.4768" gradientUnits="userSpaceOnUse">
<stop offset="0.3236" stop-color="#0ACFB2"/>
<stop offset="0.8985" stop-color="#23A894"/>
<stop offset="1" stop-color="#20685D"/>
</linearGradient>
<linearGradient id="paint1_linear_4244_10119" x1="0.744185" y1="20.0679" x2="2.50296" y2="20.0679" gradientUnits="userSpaceOnUse">
<stop stop-color="#93A8AB"/>
<stop offset="0.2593" stop-color="#BACCCE"/>
<stop offset="0.6248" stop-color="#9AA9AB"/>
<stop offset="0.8331" stop-color="#CDE1E3"/>
<stop offset="1" stop-color="#B2C3C4"/>
</linearGradient>
<radialGradient id="paint2_radial_4244_10119" cx="0" cy="0" r="1" gradientUnits="userSpaceOnUse" gradientTransform="translate(1.1249 1.39139) scale(2.94298 2.96484)">
<stop stop-color="#DCF4F5"/>
<stop offset="0.446" stop-color="#BACCCE"/>
</radialGradient>
<linearGradient id="paint3_linear_4244_10119" x1="2.56542" y1="13.4365" x2="0.672058" y2="13.4365" gradientUnits="userSpaceOnUse">
<stop offset="0.1796" stop-color="#00B69B"/>
<stop offset="0.6266" stop-color="#00B69B"/>
<stop offset="1" stop-color="#00B69B"/>
</linearGradient>
</defs>
</svg>
