<svg width="22" height="27" viewBox="0 0 22 27" fill="none" xmlns="http://www.w3.org/2000/svg">
<path d="M21.3968 21.1716H2.01855V4.40723H21.3875C21.9717 4.40723 22.2811 5.10356 21.892 5.54265L15.903 12.2979C15.6745 12.5555 15.6737 12.9446 15.901 13.2031L21.9034 20.0386C22.2897 20.4785 21.9795 21.1716 21.3968 21.1716Z" fill="url(#paint0_linear_6804_10183)"/>
<path d="M1.62358 37.1252C1.13772 37.1252 0.744141 36.7287 0.744141 36.2392V1.63574H2.50303V36.2392C2.50303 36.7283 2.10905 37.1252 1.62358 37.1252Z" fill="url(#paint1_linear_6804_10183)"/>
<path d="M1.62349 3.27111C2.52013 3.27111 3.24699 2.53885 3.24699 1.63555C3.24699 0.732263 2.52013 0 1.62349 0C0.726863 0 0 0.732263 0 1.63555C0 2.53885 0.726863 3.27111 1.62349 3.27111Z" fill="url(#paint2_radial_6804_10183)"/>
<path d="M2.50435 21.3868H0.743027C0.703589 21.3868 0.671875 21.3545 0.671875 21.3152V4.18301C0.671875 4.14328 0.703995 4.11133 0.743027 4.11133H2.50435C2.54379 4.11133 2.57551 4.14369 2.57551 4.18301V21.3148C2.57551 21.3545 2.54379 21.3868 2.50435 21.3868Z" fill="url(#paint3_linear_6804_10183)"/>
<defs>
<linearGradient id="paint0_linear_6804_10183" x1="21.9663" y1="12.7893" x2="2.02243" y2="12.7893" gradientUnits="userSpaceOnUse">
<stop offset="0.3236" stop-color="#E03247"/>
<stop offset="0.8985" stop-color="#C92F45"/>
<stop offset="1" stop-color="#85283F"/>
</linearGradient>
<linearGradient id="paint1_linear_6804_10183" x1="0.744185" y1="19.3804" x2="2.50296" y2="19.3804" gradientUnits="userSpaceOnUse">
<stop stop-color="#93A8AB"/>
<stop offset="0.2593" stop-color="#BACCCE"/>
<stop offset="0.6248" stop-color="#9AA9AB"/>
<stop offset="0.8331" stop-color="#CDE1E3"/>
<stop offset="1" stop-color="#B2C3C4"/>
</linearGradient>
<radialGradient id="paint2_radial_6804_10183" cx="0" cy="0" r="1" gradientUnits="userSpaceOnUse" gradientTransform="translate(1.1249 0.703886) scale(2.94298 2.96484)">
<stop stop-color="#DCF4F5"/>
<stop offset="0.446" stop-color="#BACCCE"/>
</radialGradient>
<linearGradient id="paint3_linear_6804_10183" x1="2.56542" y1="12.749" x2="0.672058" y2="12.749" gradientUnits="userSpaceOnUse">
<stop offset="0.1796" stop-color="#E03247"/>
<stop offset="0.6266" stop-color="#C92F45"/>
<stop offset="1" stop-color="#85283F"/>
</linearGradient>
</defs>
</svg>
