<svg width="20" height="19" viewBox="0 0 20 19" fill="none" xmlns="http://www.w3.org/2000/svg">
<path d="M4.36101 4.64507L5.55208 8.61437M10.79 13.8541L14.7611 15.0452M9.73437 9.67185L15.1143 4.29196M2.55713 3.3036C2.55713 3.48762 2.59337 3.66983 2.66379 3.83984C2.73421 4.00985 2.83743 4.16432 2.96755 4.29444C3.09767 4.42456 3.25214 4.52778 3.42215 4.59819C3.59216 4.66861 3.77437 4.70486 3.95839 4.70486C4.1424 4.70486 4.32462 4.66861 4.49462 4.59819C4.66463 4.52778 4.81911 4.42456 4.94923 4.29444C5.07934 4.16432 5.18256 4.00985 5.25298 3.83984C5.3234 3.66983 5.35964 3.48762 5.35964 3.3036C5.35964 3.11959 5.3234 2.93737 5.25298 2.76736C5.18256 2.59735 5.07934 2.44288 4.94923 2.31276C4.81911 2.18264 4.66463 2.07943 4.49462 2.00901C4.32462 1.93859 4.1424 1.90234 3.95839 1.90234C3.77437 1.90234 3.59216 1.93859 3.42215 2.00901C3.25214 2.07943 3.09767 2.18264 2.96755 2.31276C2.83743 2.44288 2.73421 2.59735 2.66379 2.76736C2.59337 2.93737 2.55713 3.11959 2.55713 3.3036ZM14.7014 3.3036C14.7014 3.67524 14.849 4.03165 15.1118 4.29444C15.3746 4.55723 15.731 4.70486 16.1026 4.70486C16.4743 4.70486 16.8307 4.55723 17.0935 4.29444C17.3562 4.03165 17.5039 3.67524 17.5039 3.3036C17.5039 2.93196 17.3562 2.57555 17.0935 2.31276C16.8307 2.04998 16.4743 1.90234 16.1026 1.90234C15.731 1.90234 15.3746 2.04998 15.1118 2.31276C14.849 2.57555 14.7014 2.93196 14.7014 3.3036ZM14.7014 15.4478C14.7014 15.8195 14.849 16.1759 15.1118 16.4387C15.3746 16.7015 15.731 16.8491 16.1026 16.8491C16.4743 16.8491 16.8307 16.7015 17.0935 16.4387C17.3562 16.1759 17.5039 15.8195 17.5039 15.4478C17.5039 15.0762 17.3562 14.7198 17.0935 14.457C16.8307 14.1942 16.4743 14.0466 16.1026 14.0466C15.731 14.0466 15.3746 14.1942 15.1118 14.457C14.849 14.7198 14.7014 15.0762 14.7014 15.4478ZM2.55713 12.6453C2.55713 13.7602 3.00003 14.8295 3.78839 15.6178C4.57675 16.4062 5.64599 16.8491 6.7609 16.8491C7.87581 16.8491 8.94506 16.4062 9.73342 15.6178C10.5218 14.8295 10.9647 13.7602 10.9647 12.6453C10.9647 11.5304 10.5218 10.4612 9.73342 9.6728C8.94506 8.88444 7.87581 8.44155 6.7609 8.44155C5.64599 8.44155 4.57675 8.88444 3.78839 9.6728C3.00003 10.4612 2.55713 11.5304 2.55713 12.6453Z" stroke="#275A7F" stroke-width="1.86834" stroke-linecap="round" stroke-linejoin="round"/>
</svg>
