<svg width="21" height="23" viewBox="0 0 21 23" fill="none" xmlns="http://www.w3.org/2000/svg">
<path fill-rule="evenodd" clip-rule="evenodd" d="M0.96582 8.18109L9.31694 13.0026C9.40686 13.0545 9.50115 13.092 9.59714 13.1158V22.4669L1.56142 17.7114C1.19225 17.4929 0.96582 17.0958 0.96582 16.6668V8.18109ZM20.3861 8.05273V16.6666C20.3861 17.0956 20.1597 17.4927 19.7905 17.7112L11.7548 22.4668V13.0337C11.7744 13.024 11.7938 13.0135 11.813 13.0024L20.3861 8.05273Z" fill="#F1C735"/>
<path opacity="0.499209" fill-rule="evenodd" clip-rule="evenodd" d="M1.22754 5.84098C1.32955 5.71216 1.45829 5.6033 1.6084 5.52335L10.1049 0.99795C10.4615 0.807975 10.8894 0.807975 11.246 0.99795L19.7425 5.52335C19.8582 5.58498 19.9612 5.66379 20.0491 5.75568L10.7336 11.134C10.6724 11.1693 10.6159 11.2098 10.5644 11.2545C10.513 11.2098 10.4565 11.1693 10.3953 11.134L1.22754 5.84098Z" fill="#F1C735"/>
</svg>
