<svg width="13" height="13" viewBox="0 0 13 13" fill="none" xmlns="http://www.w3.org/2000/svg">
<path d="M1.57037 0.948242C1.31342 0.948242 1.06701 1.05031 0.885319 1.232C0.703633 1.41368 0.601563 1.6601 0.601562 1.91705C0.601563 2.17399 0.703633 2.42041 0.885319 2.6021C1.06701 2.78378 1.31342 2.88585 1.57037 2.88585V7.24547C1.57037 7.88783 1.82554 8.50388 2.27976 8.9581C2.73397 9.41231 3.35002 9.66749 3.99238 9.66749H5.92999V11.6051H3.99238C3.86391 11.6051 3.7407 11.6561 3.64986 11.747C3.55901 11.8378 3.50798 11.961 3.50798 12.0895C3.50798 12.218 3.55901 12.3412 3.64986 12.432C3.7407 12.5229 3.86391 12.5739 3.99238 12.5739H8.8364C8.96488 12.5739 9.08809 12.5229 9.17893 12.432C9.26977 12.3412 9.32081 12.218 9.32081 12.0895C9.32081 11.961 9.26977 11.8378 9.17893 11.747C9.08809 11.6561 8.96488 11.6051 8.8364 11.6051H6.89879V9.66749H8.8364C9.47876 9.66749 10.0948 9.41231 10.549 8.9581C11.0032 8.50388 11.2584 7.88783 11.2584 7.24547V2.88585C11.5154 2.88585 11.7618 2.78378 11.9435 2.6021C12.1252 2.42041 12.2272 2.17399 12.2272 1.91705C12.2272 1.6601 12.1252 1.41368 11.9435 1.232C11.7618 1.05031 11.5154 0.948242 11.2584 0.948242H1.57037ZM2.53917 2.88585H10.2896V7.24547C10.2896 7.63089 10.1365 8.00052 9.86398 8.27305C9.59145 8.54558 9.22182 8.69868 8.8364 8.69868H3.99238C3.60697 8.69868 3.23734 8.54558 2.96481 8.27305C2.69228 8.00052 2.53917 7.63089 2.53917 7.24547V2.88585Z" fill="#4094D1"/>
</svg>
