<svg width="17" height="16" viewBox="0 0 17 16" fill="none" xmlns="http://www.w3.org/2000/svg">
<path d="M7.2994 2.8738C7.60748 3.08655 7.90219 3.22664 8.14458 3.25744C8.01154 3.52097 7.91941 3.80322 7.87138 4.09449C7.48076 4.00788 7.10932 3.80152 6.80415 3.5911C6.65801 3.48971 6.51661 3.38168 6.38039 3.26732V4.56591C6.3803 4.65281 6.35424 4.7377 6.30556 4.80968C6.25688 4.88167 6.1878 4.93746 6.10719 4.9699L6.1037 4.97165C6.07111 4.98501 6.03893 4.99935 6.00721 5.01466C5.9392 5.04663 5.84038 5.09604 5.7247 5.16231C5.44058 5.32236 5.17837 5.51853 4.94462 5.74591C4.6813 6.00924 4.51854 6.36382 4.42728 6.63877C4.30928 6.99102 4.00934 7.31596 3.58268 7.38746C3.55238 7.39253 3.52486 7.40815 3.50497 7.43155C3.48508 7.45495 3.4741 7.48463 3.47398 7.51534V8.53491C3.47398 8.63082 3.54373 8.71278 3.63848 8.72848C4.0012 8.78893 4.28661 9.02609 4.44762 9.31325C4.66191 9.69621 4.92684 10.0485 5.23526 10.3607C5.50106 10.6189 5.81379 10.8239 6.1566 10.9647C6.3023 11.026 6.45277 11.0754 6.60651 11.1123L6.60942 11.1135C6.70863 11.1329 6.79801 11.1862 6.86227 11.2642C6.92653 11.3423 6.96167 11.4402 6.96167 11.5413V12.2679C6.96167 12.3481 7.02678 12.4132 7.10699 12.4132H7.8336C7.8336 12.182 7.92546 11.9602 8.08898 11.7967C8.2525 11.6332 8.47427 11.5413 8.70552 11.5413H9.86809C10.0993 11.5413 10.3211 11.6332 10.4846 11.7967C10.6481 11.9602 10.74 12.182 10.74 12.4132H11.4666C11.5052 12.4132 11.5421 12.3979 11.5694 12.3707C11.5966 12.3434 11.6119 12.3065 11.6119 12.2679V10.96C11.6119 10.7955 11.7049 10.645 11.8514 10.5706L11.859 10.5665L11.8997 10.5432C11.9375 10.5206 11.995 10.4851 12.0653 10.434C12.206 10.3317 12.3973 10.173 12.5885 9.94975C12.9681 9.5074 13.3558 8.80579 13.3558 7.76297C13.3558 7.17762 13.2465 6.70503 13.0599 6.31673C13.2677 6.04132 13.4248 5.73111 13.5238 5.40063C13.5819 5.47969 13.6365 5.56165 13.6877 5.64652C14.0388 6.22722 14.2277 6.92766 14.2277 7.76239C14.2277 9.04528 13.7435 9.9422 13.2512 10.5171C13.0269 10.7791 12.7689 11.0101 12.4839 11.2042V12.2673C12.4839 12.401 12.4577 12.5333 12.4066 12.6568C12.3555 12.7803 12.2806 12.8925 12.1861 12.987C12.0917 13.0815 11.9795 13.1565 11.856 13.2077C11.7326 13.2588 11.6003 13.2852 11.4666 13.2852H10.74C10.5088 13.2852 10.287 13.1933 10.1235 13.0298C9.95995 12.8663 9.86809 12.6445 9.86809 12.4132H8.70552C8.70552 12.6445 8.61366 12.8663 8.45014 13.0298C8.28662 13.1933 8.06485 13.2852 7.8336 13.2852H7.10699C6.8372 13.2852 6.57846 13.178 6.38769 12.9872C6.19692 12.7964 6.08975 12.5377 6.08975 12.2679V11.8709C5.99867 11.8402 5.90871 11.8063 5.82003 11.7692C5.37272 11.5846 4.96502 11.3158 4.6191 10.9775C4.25419 10.6081 3.94041 10.1915 3.68614 9.73875C3.6673 9.70119 3.64038 9.66827 3.60732 9.64234C3.57426 9.61641 3.53587 9.59812 3.4949 9.58878C3.24552 9.547 3.019 9.41822 2.85555 9.22529C2.6921 9.03237 2.60229 8.78777 2.60205 8.53491V7.51592C2.60205 7.0259 2.95663 6.60796 3.4391 6.52774C3.48967 6.51902 3.56466 6.46845 3.60011 6.36266C3.71172 6.02726 3.92854 5.5291 4.32846 5.12917C4.61693 4.84695 4.94091 4.60348 5.29223 4.4049C5.37206 4.35956 5.44414 4.3208 5.50847 4.28864V2.63024C5.50847 2.085 6.16532 1.8612 6.5199 2.21404C6.71172 2.40528 6.99074 2.65988 7.2994 2.87322M9.03685 5.63954C8.75202 5.52154 8.51137 5.29716 8.45441 4.99432C8.3508 4.43007 8.45934 3.84743 8.75918 3.35834C9.05902 2.86925 9.529 2.5082 10.0789 2.34455C10.6287 2.1809 11.2196 2.2262 11.7381 2.47173C12.2566 2.71727 12.6661 3.14573 12.8879 3.6748C13.0924 4.16783 13.1211 4.71621 12.9691 5.22787C12.8171 5.73954 12.4937 6.18332 12.0531 6.48473C11.7985 6.65853 11.4701 6.6469 11.1853 6.5289L9.03685 5.63954ZM11.591 5.74417C11.8781 5.53486 12.0787 5.2277 12.1548 4.88066C12.231 4.53361 12.1774 4.1707 12.0043 3.86042C11.8312 3.55013 11.5506 3.31395 11.2153 3.19644C10.8799 3.07892 10.5132 3.08822 10.1843 3.22257C9.88189 3.3476 9.63052 3.57104 9.4709 3.85672C9.31129 4.14241 9.25277 4.4736 9.30482 4.79668L9.31703 4.80598C9.33384 4.81711 9.35176 4.82646 9.37051 4.83388L11.5189 5.72325C11.542 5.73311 11.5662 5.73995 11.591 5.74359M6.67103 6.30976C6.67103 6.46393 6.60979 6.61178 6.50078 6.72079C6.39177 6.8298 6.24391 6.89104 6.08975 6.89104C5.93558 6.89104 5.78773 6.8298 5.67872 6.72079C5.56971 6.61178 5.50847 6.46393 5.50847 6.30976C5.50847 6.15559 5.56971 6.00774 5.67872 5.89873C5.78773 5.78972 5.93558 5.72848 6.08975 5.72848C6.24391 5.72848 6.39177 5.78972 6.50078 5.89873C6.60979 6.00774 6.67103 6.15559 6.67103 6.30976Z" fill="#4094D1"/>
</svg>
